HIERARCHY
ROOT Hips
{
    OFFSET 0.0 0.0 0.0
    CHANNELS 6 Xposition Yposition Zposition Zrotation Xrotation Yrotation
    JOINT Spine
    {
        OFFSET 0.0 5.0 0.0
        CHANNELS 3 Zrotation Xrotation Yrotation
        JOINT Chest
        {
            OFFSET 0.0 5.0 0.0
            CHANNELS 3 Zrotation Xrotation Yrotation
            JOINT Neck
            {
                OFFSET 0.0 8.0 0.0
                CHANNELS 3 Zrotation Xrotation Yrotation
                JOINT Head
                {
                    OFFSET 0.0 5.0 0.0
                    CHANNELS 3 Zrotation Xrotation Yrotation
                    End Site
                    {
                        OFFSET 0.0 3.0 0.0
                    }
                }
            }
            JOINT LeftShoulder
            {
                OFFSET -5.0 0.0 0.0
                CHANNELS 3 Zrotation Xrotation Yrotation
                JOINT LeftArm
                {
                    OFFSET 0.0 -10.0 0.0
                    CHANNELS 3 Zrotation Xrotation Yrotation
                    JOINT LeftForeArm
                    {
                        OFFSET 0.0 -10.0 0.0
                        CHANNELS 3 Zrotation Xrotation Yrotation
                        End Site
                        {
                            OFFSET 0.0 -3.0 0.0
                        }
                    }
                }
            }
        }
    }
}

MOTION
Frames: 37
Frame Time: 0.033333
970.000000 442.938926 142.311756 0.000000 0.000000 0.000000 0.000000 0.000000 0.000000 29.678605 10.883991 0.000000 180.000000 -1.525937 0.000000 29.744881 -7.573025 -0.000000 150.255119 -4.004551 30.000000 19.983107 5.702160 0.000000 18.000000 -0.838594 0.000000
1354.522934 467.411410 128.084328 0.000000 0.000000 0.000000 0.000000 0.000000 0.000000 150.622570 -2.747968 4.973798 -29.377430 -2.373124 4.973798 140.176400 -0.598533 3.759997 -12.221629 -7.458941 29.763441 132.794256 1.732242 -3.759997 -2.626015 0.545252 0.313953
969.997807 442.887864 124.304276 0.000000 0.000000 0.000000 0.000000 0.000000 0.000000 31.061399 27.664693 9.635073 180.000000 -17.283384 9.635073 30.285790 2.315878 7.460697 149.714210 -6.922409 29.057495 19.151579 4.932671 -7.460697 18.000000 -0.294309 0.626666
1246.736984 514.278152 125.076914 0.000000 0.000000 0.000000 0.000000 0.000000 0.000000 143.557092 12.309664 13.690942 -36.442908 -14.183584 13.690942 133.761037 3.946473 11.043737 -156.950665 -6.657937 27.893295 0.000000 0.000000 0.000000 1.928484 0.551158 0.936907
1245.221100 458.637464 119.351573 0.000000 0.000000 0.000000 0.000000 0.000000 0.000000 160.701064 6.057929 16.886559 -19.298936 -25.066789 16.886559 140.193827 0.633879 14.452610 -157.554825 -5.893667 26.289200 29.500467 5.522468 -14.452610 -15.049953 -0.552247 1.243449
1257.365570 418.514181 123.969857 0.000000 0.000000 0.000000 0.000000 0.000000 0.000000 -143.710676 4.664110 19.021130 36.289324 1.797118 19.021130 163.220413 0.206306 17.633558 11.688054 0.200197 24.270510 152.038385 3.528808 -17.633558 -2.339948 -0.249142 1.545085
1275.099564 408.163741 112.366743 0.000000 0.000000 0.000000 0.000000 0.000000 0.000000 -132.929531 -14.032554 19.960535 47.070469 16.101718 19.960535 173.491912 -3.998642 20.536413 -160.709681 -4.232487 21.869059 33.138793 4.158903 -20.536413 -14.686121 -0.415890 1.840623
1290.611115 384.880857 102.313097 0.000000 0.000000 0.000000 0.000000 0.000000 0.000000 -132.705235 6.332834 19.645745 47.294765 2.946652 19.645745 -173.778854 -1.725514 23.115397 20.496835 -0.647570 19.122720 -161.220290 -3.792824 -23.115397 1.723235 0.387138 2.128896
1302.817154 380.305352 93.689934 0.000000 0.000000 0.000000 0.000000 0.000000 0.000000 -131.493915 -2.790794 18.096541 48.506085 -0.310922 18.096541 -165.393697 -4.122066 25.329838 23.154815 -2.865597 16.074804 -178.200316 0.591362 -25.329838 0.138141 0.115833 2.408768
1304.997711 379.563582 106.250383 0.000000 0.000000 0.000000 0.000000 0.000000 0.000000 -126.727972 7.355635 15.410265 53.272028 0.030303 15.410265 -160.219593 -0.033548 27.144812 28.448880 -1.096508 12.773379 -174.368770 0.480250 -27.144812 0.079526 -0.044360 2.679134
1311.668472 386.890390 83.760652 0.000000 0.000000 0.000000 0.000000 0.000000 0.000000 -122.308728 18.751893 11.755705 57.691272 -10.632507 11.755705 -158.801130 2.909342 28.531695 150.942637 -9.962900 9.270510 -154.878332 -3.695028 -28.531695 2.695409 0.467031 2.938926
1305.131836 395.180186 75.468516 0.000000 0.000000 0.000000 0.000000 0.000000 0.000000 -125.112810 21.118006 7.362491 54.887190 13.768732 7.362491 -146.487292 -6.720983 29.468618 -175.167369 -7.877440 5.621439 -159.224034 -3.598452 -29.468618 1.782042 0.410824 3.187120
1296.320457 392.734526 76.367743 0.000000 0.000000 0.000000 0.000000 0.000000 0.000000 -131.035750 10.255571 2.506665 48.964250 -19.132570 2.506665 -128.969563 2.823615 29.940802 38.856147 -6.262176 1.883716 -134.776850 1.291880 -29.940802 3.458429 -0.231868 3.422736
1306.963577 386.612041 72.271666 0.000000 0.000000 0.000000 0.000000 0.000000 0.000000 -124.469622 -2.447185 -2.506665 55.530378 4.415989 -2.506665 -109.994856 0.602504 29.940802 37.691309 4.093788 -1.883716 -118.274788 -1.804088 -29.940802 5.098336 0.121042 3.644843
969.892723 442.572198 67.826774 0.000000 0.000000 0.000000 0.000000 0.000000 0.000000 41.287575 27.093726 -7.362491 180.000000 -8.441864 -7.362491 30.974696 2.778808 29.468618 149.025304 -12.265638 -5.621439 15.072869 -0.562537 -29.468618 18.000000 -0.010939 3.852566
969.876883 442.545207 81.310740 0.000000 0.000000 0.000000 0.000000 0.000000 0.000000 42.241956 -21.464136 -11.755705 180.000000 21.749840 -11.755705 30.826133 -25.630094 28.531695 149.173867 5.097440 -9.270510 14.823070 -1.447799 -28.531695 18.000000 0.172415 4.045085
969.859960 442.518116 64.963152 0.000000 0.000000 0.000000 0.000000 0.000000 0.000000 43.199779 3.362577 -15.410265 180.000000 -11.827447 -15.410265 30.649504 14.028423 27.144812 149.350496 13.889731 -12.773379 14.587557 -17.169998 -27.144812 18.000000 1.108042 4.221640
969.841956 442.490926 59.843476 0.000000 0.000000 0.000000 0.000000 0.000000 0.000000 44.157210 -40.597176 -18.096541 180.000000 0.698166 -18.096541 30.446417 4.998720 25.329838 149.553583 -11.739898 -16.074804 14.366154 11.471386 -25.329838 18.000000 -0.153224 4.381533
969.822873 442.463637 67.379502 0.000000 0.000000 0.000000 0.000000 0.000000 0.000000 45.110117 28.952942 -19.645745 180.000000 -22.874205 -19.645745 30.218633 -1.449406 23.115397 149.781367 -9.675260 -19.122720 14.158653 -1.806233 -23.115397 18.000000 0.102438 4.524135
969.802712 442.436251 55.712193 0.000000 0.000000 0.000000 0.000000 0.000000 0.000000 46.054109 -54.835796 -19.960535 180.000000 28.600186 -19.960535 29.968037 -7.667169 20.536413 150.031963 10.171118 -21.869059 13.964823 3.690779 -20.536413 18.000000 -0.284080 4.648882
1187.040939 541.658249 55.078493 0.000000 0.000000 0.000000 0.000000 0.000000 0.000000 82.806623 18.837438 -19.021130 -97.193377 13.099962 -19.021130 45.395981 6.190089 17.633558 -156.144455 -2.050211 -24.270510 0.000000 0.000000 0.000000 0.000000 0.000000 0.000000
1182.242889 522.024286 41.390615 0.000000 0.000000 0.000000 0.000000 0.000000 0.000000 -105.721938 6.945294 -16.886559 74.278062 -23.610406 -16.886559 -155.708006 -1.856460 14.452610 -157.302521 -2.807425 -26.289200 0.000000 0.000000 0.000000 2.684983 0.142073 4.842916
1180.914459 527.065626 40.516404 0.000000 0.000000 0.000000 0.000000 0.000000 0.000000 88.055617 -1.318057 -13.690942 -91.944383 -4.905151 -13.690942 -158.862018 -1.779419 11.043737 -151.747289 -2.333063 -27.893295 0.000000 0.000000 0.000000 0.000000 0.000000 0.000000
1236.800194 541.387432 57.071844 0.000000 0.000000 0.000000 0.000000 0.000000 0.000000 -85.588400 12.201413 -9.635073 94.411600 -9.548370 -9.635073 -159.297106 3.248729 7.460697 -157.915391 -2.396895 -29.057495 26.607362 2.205537 -7.460697 14.926890 -0.130530 4.960574
1161.066513 575.006626 58.446175 0.000000 0.000000 0.000000 0.000000 0.000000 0.000000 -81.021168 -10.580535 -4.973798 98.978832 13.485035 -4.973798 -102.851701 -8.216984 3.759997 -157.041007 -1.561283 -29.763441 21.429890 2.616692 -3.759997 10.859432 -0.315286 4.990134
1255.636253 512.645942 77.070506 0.000000 0.000000 0.000000 0.000000 0.000000 0.000000 77.832564 -1.763804 -0.000000 -102.167436 5.930955 -0.000000 -158.264834 -2.854498 0.000000 -130.745502 2.583760 -30.000000 -157.699225 -2.982199 -0.000000 0.000000 0.000000 0.000000
1265.118484 521.473864 45.789391 0.000000 0.000000 0.000000 0.000000 0.000000 0.000000 64.078276 -7.461775 4.973798 -115.921724 -6.788029 4.973798 41.397952 7.380251 -3.759997 -139.329851 -0.654729 -29.763441 20.223252 2.907573 3.759997 -16.047574 -0.130628 4.990134
1228.099480 522.138258 44.984165 0.000000 0.000000 0.000000 0.000000 0.000000 0.000000 71.050901 3.923285 9.635073 -108.949099 -7.059925 9.635073 150.099970 3.801513 -7.460697 -139.894702 -7.928484 -29.057495 -156.275691 -1.703211 7.460697 0.000000 0.000000 0.000000
1240.357246 528.695873 42.898122 0.000000 0.000000 0.000000 0.000000 0.000000 0.000000 65.413351 10.418871 13.690942 -114.586649 -3.860079 13.690942 147.242328 -4.509194 -11.043737 -154.470720 -2.678313 -27.893295 25.557225 2.029666 11.043737 -15.444278 -0.202967 4.911436
1231.815262 551.380248 52.429268 0.000000 0.000000 0.000000 0.000000 0.000000 0.000000 56.412506 2.013636 16.886559 -123.587494 1.265944 16.886559 -153.392336 -0.275183 -14.452610 -154.784582 -2.670543 -26.289200 24.191555 4.050000 14.452610 -15.580844 -0.405000 4.842916
1221.475182 508.360147 76.774843 0.000000 0.000000 0.000000 0.000000 0.000000 0.000000 77.450622 -12.455148 19.021130 -102.549378 11.025063 19.021130 -156.789784 -3.112192 -17.633558 -125.590168 4.501661 -24.270510 -160.017240 -3.732997 17.633558 1.833434 0.514274 4.755283
969.477684 442.100429 74.124769 0.000000 0.000000 0.000000 0.000000 0.000000 0.000000 54.932575 -48.383575 19.960535 180.000000 -18.262638 19.960535 25.919122 16.364172 -20.536413 154.080878 3.663466 -21.869059 12.612867 5.998605 20.536413 18.000000 -0.660846 4.648882
1480.140495 518.878891 74.559588 0.000000 0.000000 0.000000 0.000000 0.000000 0.000000 -110.621767 -82.382916 19.645745 69.378233 71.538963 19.645745 -158.235933 -2.903298 -23.115397 166.031448 1.735795 -19.122720 -155.186432 -3.190207 23.115397 2.641553 0.379785 4.524135
1271.640472 556.840560 72.212666 0.000000 0.000000 0.000000 0.000000 0.000000 0.000000 -94.404719 -15.975735 18.096541 85.595281 -3.943524 18.096541 -62.417786 0.798557 -25.329838 23.992813 2.062419 -16.074804 -76.856107 -4.288944 25.329838 7.708835 0.532857 4.381533
1258.556786 530.268441 78.858513 0.000000 0.000000 0.000000 0.000000 0.000000 0.000000 78.355945 -4.233736 15.410265 -101.644055 3.804835 15.410265 35.068294 1.656877 -27.144812 -54.090640 2.057674 -12.773379 35.848220 -3.047013 27.144812 -8.104639 1.218589 4.221640
1250.800209 527.150567 67.991751 0.000000 0.000000 0.000000 0.000000 0.000000 0.000000 72.417769 -6.569485 11.755705 -107.582231 3.075502 11.755705 24.571109 4.190038 -28.531695 -39.196117 10.934084 -9.270510 10.411117 -7.930249 28.531695 -9.048616 -2.525508 4.045085
1243.466148 571.776259 90.352449 0.000000 0.000000 0.000000 0.000000 0.000000 0.000000 86.301473 -2.721497 7.362491 -93.698527 6.512960 7.362491 24.553534 1.514016 -29.468618 -153.460385 -3.271282 -5.621439 19.510484 3.202069 29.468618 -10.109500 -0.371672 3.852566
